<svg width="404" height="60" viewBox="0 0 404 60" fill="none" xmlns="http://www.w3.org/2000/svg">
<path d="M33.7666 25.7231C34.4085 25.7231 35.0173 25.8421 35.5928 26.0801C36.1683 26.3125 36.6774 26.6777 37.1201 27.1758C37.5684 27.6683 37.9198 28.3019 38.1743 29.0767C38.4289 29.8459 38.5562 30.7728 38.5562 31.8574V31.874C38.5562 33.2188 38.3625 34.3698 37.9751 35.3271C37.5877 36.2845 37.0316 37.0205 36.3066 37.5352C35.5872 38.0443 34.7267 38.2988 33.7251 38.2988C32.9891 38.2988 32.325 38.166 31.7329 37.9004C31.1463 37.6292 30.6593 37.2585 30.272 36.7881C29.8901 36.3122 29.6328 35.7699 29.5 35.1611L29.4834 35.0698H31.5835L31.6167 35.1528C31.7218 35.4295 31.8713 35.673 32.0649 35.8833C32.2642 36.0936 32.5021 36.2568 32.7788 36.373C33.061 36.4837 33.3765 36.5391 33.7251 36.5391C34.356 36.5391 34.8706 36.3537 35.269 35.9829C35.673 35.6066 35.9746 35.1058 36.1738 34.4805C36.3786 33.8496 36.4948 33.1523 36.5225 32.3887C36.528 32.3057 36.5308 32.2254 36.5308 32.1479C36.5308 32.0649 36.5308 31.9847 36.5308 31.9072L36.1572 29.9067C36.1572 29.453 36.0521 29.0407 35.8418 28.6699C35.6315 28.2992 35.3465 28.0059 34.9868 27.79C34.6326 27.5742 34.2314 27.4663 33.7832 27.4663C33.3516 27.4663 32.9559 27.5715 32.5962 27.7817C32.2365 27.992 31.9487 28.2798 31.7329 28.645C31.5171 29.0047 31.4092 29.4087 31.4092 29.8569V29.8735C31.4092 30.3384 31.5116 30.7507 31.7163 31.1104C31.9211 31.4645 32.2005 31.744 32.5547 31.9487C32.9089 32.1535 33.3128 32.2559 33.7666 32.2559C34.2204 32.2559 34.6271 32.1562 34.9868 31.957C35.3465 31.7578 35.6315 31.4811 35.8418 31.127C36.0521 30.7728 36.1572 30.3716 36.1572 29.9233V29.9067H36.6553V32.1147H36.3647C36.2209 32.4302 36.0078 32.7235 35.7256 32.9946C35.4434 33.2658 35.0947 33.4844 34.6797 33.6504C34.2702 33.8164 33.7887 33.8994 33.2354 33.8994C32.4717 33.8994 31.7965 33.7279 31.21 33.3848C30.6234 33.0417 30.1613 32.5713 29.8237 31.9736C29.4917 31.376 29.3257 30.7008 29.3257 29.9482V29.9316C29.3257 29.1182 29.5138 28.396 29.8901 27.7651C30.272 27.1287 30.7977 26.6307 31.4673 26.271C32.1424 25.9058 32.9089 25.7231 33.7666 25.7231ZM42.3247 36.3896C41.9484 36.3896 41.633 36.2651 41.3784 36.0161C41.1294 35.7616 41.0049 35.4517 41.0049 35.0864C41.0049 34.7157 41.1294 34.4058 41.3784 34.1567C41.633 33.9022 41.9484 33.7749 42.3247 33.7749C42.7065 33.7749 43.022 33.9022 43.271 34.1567C43.52 34.4058 43.6445 34.7157 43.6445 35.0864C43.6445 35.4517 43.52 35.7616 43.271 36.0161C43.022 36.2651 42.7065 36.3896 42.3247 36.3896ZM42.3247 30.2305C41.9484 30.2305 41.633 30.106 41.3784 29.8569C41.1294 29.6024 41.0049 29.2925 41.0049 28.9272C41.0049 28.5565 41.1294 28.2466 41.3784 27.9976C41.633 27.743 41.9484 27.6157 42.3247 27.6157C42.7065 27.6157 43.022 27.743 43.271 27.9976C43.52 28.2466 43.6445 28.5565 43.6445 28.9272C43.6445 29.2925 43.52 29.6024 43.271 29.8569C43.022 30.106 42.7065 30.2305 42.3247 30.2305ZM51.9038 38V35.7007H46.0435V33.9492C46.3589 33.4124 46.6743 32.8729 46.9897 32.3306C47.3107 31.7882 47.6344 31.2487 47.9609 30.7119C48.293 30.1696 48.6222 29.6356 48.9487 29.1099C49.2808 28.5786 49.61 28.0557 49.9365 27.541C50.2686 27.0208 50.6006 26.5145 50.9326 26.022H53.9458V33.9326H55.5645V35.7007H53.9458V38H51.9038ZM48.0356 33.9824H51.937V27.7319H51.8125C51.569 28.1082 51.3172 28.4956 51.0571 28.894C50.8026 29.2925 50.5452 29.6992 50.2852 30.1143C50.0251 30.5293 49.7677 30.9471 49.5132 31.3677C49.2586 31.7827 49.0068 32.2005 48.7578 32.6211C48.5088 33.0361 48.2681 33.4484 48.0356 33.8579V33.9824ZM60.52 38V28.1304H60.3706L57.3906 30.2305V28.2217L60.52 26.022H62.6533V38H60.52Z" fill="black"/>
<path fill-rule="evenodd" clip-rule="evenodd" d="M329.53 27.0329C329.53 26.3999 329.053 25.8867 328.463 25.8867H327.397C326.808 25.8867 326.33 26.3999 326.33 27.0329V36.9669C326.33 37.5999 326.808 38.1131 327.397 38.1131H328.463C329.053 38.1131 329.53 37.5999 329.53 36.9669V27.0329ZM322.096 28.332H323.163C323.752 28.332 324.229 28.8575 324.229 29.5057V36.9394C324.229 37.5876 323.752 38.1131 323.163 38.1131H322.096C321.507 38.1131 321.029 37.5876 321.029 36.9394V29.5057C321.029 28.8575 321.507 28.332 322.096 28.332ZM317.764 30.981H316.698C316.108 30.981 315.631 31.5132 315.631 32.1697V36.9244C315.631 37.5809 316.108 38.1131 316.698 38.1131H317.764C318.353 38.1131 318.831 37.5809 318.831 36.9244V32.1697C318.831 31.5132 318.353 30.981 317.764 30.981ZM312.463 33.4263H311.397C310.808 33.4263 310.33 33.9509 310.33 34.598V36.9414C310.33 37.5885 310.808 38.1131 311.397 38.1131H312.463C313.053 38.1131 313.53 37.5885 313.53 36.9414V34.598C313.53 33.9509 313.053 33.4263 312.463 33.4263Z" fill="black"/>
<path fill-rule="evenodd" clip-rule="evenodd" d="M345.102 28.3022C347.589 28.3023 349.981 29.2244 351.783 30.8779C351.919 31.0055 352.136 31.0039 352.27 30.8743L353.567 29.6108C353.635 29.545 353.672 29.456 353.672 29.3633C353.671 29.2706 353.633 29.182 353.564 29.117C348.833 24.7423 341.369 24.7423 336.638 29.117C336.57 29.1819 336.531 29.2705 336.53 29.3632C336.53 29.4559 336.567 29.545 336.635 29.6108L337.933 30.8743C338.066 31.0041 338.284 31.0057 338.419 30.8779C340.222 29.2243 342.614 28.3022 345.102 28.3022ZM345.098 32.5225C346.456 32.5224 347.764 33.0342 348.771 33.9583C348.907 34.0894 349.121 34.0866 349.254 33.9519L350.541 32.6326C350.609 32.5634 350.646 32.4695 350.645 32.3719C350.644 32.2744 350.605 32.1813 350.536 32.1135C347.472 29.2227 342.727 29.2227 339.663 32.1135C339.594 32.1813 339.555 32.2744 339.554 32.372C339.553 32.4696 339.591 32.5635 339.658 32.6326L340.945 33.9519C341.078 34.0866 341.292 34.0894 341.429 33.9583C342.434 33.0348 343.742 32.5231 345.098 32.5225ZM347.623 35.316C347.625 35.4214 347.588 35.523 347.52 35.5968L345.344 38.0515C345.28 38.1236 345.193 38.1642 345.102 38.1642C345.011 38.1642 344.924 38.1236 344.86 38.0515L342.683 35.5968C342.616 35.5229 342.579 35.4213 342.581 35.316C342.583 35.2106 342.624 35.1108 342.694 35.0402C344.084 33.7263 346.12 33.7263 347.51 35.0402C347.58 35.1109 347.621 35.2107 347.623 35.316Z" fill="black"/>
<rect opacity="0.35" x="361.172" y="26" width="24" height="12" rx="3.8" stroke="black"/>
<path opacity="0.4" d="M386.672 30.2812V34.3567C387.477 34.0116 388 33.2086 388 32.319C388 31.4294 387.477 30.6264 386.672 30.2812" fill="black"/>
<rect x="362.672" y="27.5" width="21" height="9" rx="2.5" fill="black"/>
</svg>
